<svg data-v-423bf9ae="" xmlns="http://www.w3.org/2000/svg" viewBox="0 0 323 90" class="iconLeft"><!----><!----><!----><g data-v-423bf9ae="" id="7779c358-9025-4f94-a21c-b0406ce5bc7d" fill="#000000" transform="matrix(4.58015287181561,0,0,4.58015287181561,107.48091372144368,0.2519069064587782)"><path d="M4.48 3.72C2.60 3.72 0.94 4.77 0.94 6.58C0.94 8.43 2.20 9.11 4.27 9.63C5.59 9.94 6.03 10.40 6.03 11.07C6.03 11.73 5.40 12.15 4.61 12.15C3.72 12.15 2.95 11.68 2.76 10.68L0.55 10.68C0.71 12.77 2.28 13.78 4.65 13.78C6.58 13.78 8.33 12.77 8.33 10.89C8.33 9.37 7.41 8.36 5.28 7.85C3.72 7.49 3.23 7.10 3.23 6.37C3.23 5.67 3.72 5.35 4.41 5.35C5.33 5.35 5.84 5.92 5.95 6.82L8.16 6.82C7.95 5.07 6.89 3.72 4.48 3.72ZM12.92 5.92C10.44 5.92 8.99 7.52 8.99 9.84C8.99 12.17 10.44 13.78 12.92 13.78C15.39 13.78 16.86 12.17 16.86 9.84C16.86 7.52 15.39 5.92 12.92 5.92ZM12.92 12.26C11.87 12.26 11.24 11.40 11.24 9.84C11.24 8.29 11.87 7.43 12.92 7.43C13.96 7.43 14.59 8.29 14.59 9.84C14.59 11.40 13.96 12.26 12.92 12.26ZM22.71 5.92C21.95 5.92 21.21 6.09 20.79 6.41L20.23 7.24L20.23 6.12L18.03 6.12L18.03 16.32L20.23 16.32L20.23 12.60L20.72 13.38C21.10 13.62 21.84 13.78 22.46 13.78C24.37 13.78 26.01 12.38 26.01 9.69C26.01 7.49 24.77 5.92 22.71 5.92ZM21.94 12.26C21.10 12.26 20.23 11.70 20.23 10.09L20.23 9.76C20.23 8.05 21.00 7.43 22.01 7.43C23.04 7.43 23.76 8.36 23.76 9.83C23.76 11.45 23.00 12.26 21.94 12.26ZM34.40 7.98C34.23 6.68 33.32 5.92 31.75 5.92C31.05 5.92 30.52 6.06 30.02 6.40L29.40 7.29L29.40 3.22L27.20 3.22L27.20 13.58L29.40 13.58L29.40 10.12C29.40 8.22 30.04 7.45 30.91 7.43C31.77 7.43 32.19 7.91 32.24 8.67C32.27 9.04 32.27 9.42 32.27 9.70L32.27 13.58L34.47 13.58L34.47 9.37C34.47 8.76 34.45 8.36 34.40 7.98ZM37.13 3.23C36.43 3.23 35.97 3.67 35.97 4.34C35.97 5.03 36.43 5.46 37.13 5.46C37.83 5.46 38.30 5.03 38.30 4.34C38.30 3.67 37.83 3.23 37.13 3.23ZM38.23 13.58L38.23 6.12L36.04 6.12L36.04 13.58ZM46.91 9.72C46.91 7.73 45.68 5.92 43.30 5.92C40.94 5.92 39.44 7.63 39.44 9.87C39.44 12.50 41.08 13.78 43.16 13.78C44.98 13.78 46.38 12.87 46.79 11.14L44.62 11.14C44.49 11.84 43.97 12.26 43.20 12.26C42.38 12.26 41.76 11.84 41.64 10.42L46.87 10.42C46.90 10.15 46.91 9.91 46.91 9.72ZM43.20 7.43C44.02 7.43 44.51 7.98 44.63 9.03L41.69 9.03C41.87 7.92 42.42 7.43 43.20 7.43Z"></path></g><defs data-v-423bf9ae=""><linearGradient data-v-423bf9ae="" gradientTransform="rotate(25)" id="a58247d5-e230-45fe-8132-681c8b6dfc26" x1="0%" y1="0%" x2="100%" y2="0%"><stop data-v-423bf9ae="" offset="0%" style="stop-color: rgb(13, 124, 233); stop-opacity: 1;"></stop><stop data-v-423bf9ae="" offset="100%" style="stop-color: rgb(21, 207, 241); stop-opacity: 1;"></stop></linearGradient></defs><g data-v-423bf9ae="" id="e970b88c-3195-41f3-8a18-e001f1274756" transform="matrix(2.8125,0,0,2.8125,0,0)" stroke="none" fill="url(#a58247d5-e230-45fe-8132-681c8b6dfc26)"><path d="M4.029 14.362L14.362 4.028l.707.707L4.736 15.07zM17.135 27.47L27.47 17.135l.707.707-10.333 10.333zM4.029 17.841l.707-.707 10.333 10.334-.707.707zM17.135 4.735l.708-.707L28.176 14.36l-.707.707z"></path><g><path d="M16 1.414l1.683 1.683L16 4.779l-1.683-1.683L16 1.414M16 0l-3.097 3.097L16 6.194l3.097-3.097L16 0zM16 27.221l1.683 1.683L16 30.586l-1.683-1.683L16 27.221m0-1.415l-3.097 3.097L16 32l3.097-3.097L16 25.806zM3.097 14.317L4.779 16l-1.683 1.683L1.414 16l1.683-1.683m0-1.414L0 16l3.097 3.097L6.194 16l-3.097-3.097zM28.903 14.317L30.586 16l-1.683 1.683L27.221 16l1.682-1.683m0-1.414L25.806 16l3.097 3.097L32 16l-3.097-3.097z"></path></g></g><!----></svg>